<svg xmlns="http://www.w3.org/2000/svg" width="1200" height="720" viewBox="0 0 1200 720"><rect width="100%" height="100%" fill="#ffffff"/><text x="55" y="52" font-family="Arial, Helvetica, sans-serif" font-size="30" font-weight="700" text-anchor="start" fill="#172033">Classification evidence across five requirement labels</text><text x="55" y="82" font-family="Arial, Helvetica, sans-serif" font-size="15" font-weight="400" text-anchor="start" fill="#475569">Precision, recall, and F1 expose different failure modes that a single aggregate score would hide.</text><line x1="90" y1="590" x2="1135" y2="590" stroke="#e2e8f0" stroke-width="1"/><text x="76" y="595" font-family="Arial, Helvetica, sans-serif" font-size="12" font-weight="400" text-anchor="end" fill="#64748b">0.0</text><line x1="90" y1="498" x2="1135" y2="498" stroke="#e2e8f0" stroke-width="1"/><text x="76" y="503" font-family="Arial, Helvetica, sans-serif" font-size="12" font-weight="400" text-anchor="end" fill="#64748b">0.2</text><line x1="90" y1="406" x2="1135" y2="406" stroke="#e2e8f0" stroke-width="1"/><text x="76" y="411" font-family="Arial, Helvetica, sans-serif" font-size="12" font-weight="400" text-anchor="end" fill="#64748b">0.4</text><line x1="90" y1="313.99999999999994" x2="1135" y2="313.99999999999994" stroke="#e2e8f0" stroke-width="1"/><text x="76" y="318.99999999999994" font-family="Arial, Helvetica, sans-serif" font-size="12" font-weight="400" text-anchor="end" fill="#64748b">0.6</text><line x1="90" y1="222" x2="1135" y2="222" stroke="#e2e8f0" stroke-width="1"/><text x="76" y="227" font-family="Arial, Helvetica, sans-serif" font-size="12" font-weight="400" text-anchor="end" fill="#64748b">0.8</text><line x1="90" y1="130" x2="1135" y2="130" stroke="#e2e8f0" stroke-width="1"/><text x="76" y="135" font-family="Arial, Helvetica, sans-serif" font-size="12" font-weight="400" text-anchor="end" fill="#64748b">1.0</text><line x1="90" y1="590" x2="1135" y2="590" stroke="#334155" stroke-width="1.7"/><line x1="90" y1="130" x2="90" y2="590" stroke="#334155" stroke-width="1.7"/><rect x="115" y="226.6" width="38" height="363.4" rx="4" fill="#2563eb" fill-opacity="0.82"/><text x="134" y="218.59999999999997" font-family="Arial, Helvetica, sans-serif" font-size="11.5" font-weight="700" text-anchor="middle" fill="#2563eb">0.790</text><rect x="162" y="183.8" width="38" height="406.2" rx="4" fill="#f59e0b" fill-opacity="0.82"/><text x="181" y="175.82" font-family="Arial, Helvetica, sans-serif" font-size="11.5" font-weight="700" text-anchor="middle" fill="#f59e0b">0.883</text><rect x="209" y="206.4" width="38" height="383.6" rx="4" fill="#16a34a" fill-opacity="0.82"/><text x="228" y="198.36" font-family="Arial, Helvetica, sans-serif" font-size="11.5" font-weight="700" text-anchor="middle" fill="#16a34a">0.834</text><text x="183" y="621" font-family="Arial, Helvetica, sans-serif" font-size="13" font-weight="700" text-anchor="middle" fill="#334155">Function</text><rect x="320" y="247.8" width="38" height="342.2" rx="4" fill="#2563eb" fill-opacity="0.82"/><text x="339" y="239.76" font-family="Arial, Helvetica, sans-serif" font-size="11.5" font-weight="700" text-anchor="middle" fill="#2563eb">0.744</text><rect x="367" y="147.5" width="38" height="442.5" rx="4" fill="#f59e0b" fill-opacity="0.82"/><text x="386" y="139.48000000000002" font-family="Arial, Helvetica, sans-serif" font-size="11.5" font-weight="700" text-anchor="middle" fill="#f59e0b">0.962</text><rect x="414" y="204.1" width="38" height="385.9" rx="4" fill="#16a34a" fill-opacity="0.82"/><text x="433" y="196.06" font-family="Arial, Helvetica, sans-serif" font-size="11.5" font-weight="700" text-anchor="middle" fill="#16a34a">0.839</text><text x="388" y="621" font-family="Arial, Helvetica, sans-serif" font-size="13" font-weight="700" text-anchor="middle" fill="#334155">Behavior</text><rect x="525" y="267.5" width="38" height="322.5" rx="4" fill="#2563eb" fill-opacity="0.82"/><text x="544" y="259.54" font-family="Arial, Helvetica, sans-serif" font-size="11.5" font-weight="700" text-anchor="middle" fill="#2563eb">0.701</text><rect x="572" y="223.8" width="38" height="366.2" rx="4" fill="#f59e0b" fill-opacity="0.82"/><text x="591" y="215.83999999999997" font-family="Arial, Helvetica, sans-serif" font-size="11.5" font-weight="700" text-anchor="middle" fill="#f59e0b">0.796</text><rect x="619" y="246.8" width="38" height="343.2" rx="4" fill="#16a34a" fill-opacity="0.82"/><text x="638" y="238.83999999999997" font-family="Arial, Helvetica, sans-serif" font-size="11.5" font-weight="700" text-anchor="middle" fill="#16a34a">0.746</text><text x="593" y="621" font-family="Arial, Helvetica, sans-serif" font-size="13" font-weight="700" text-anchor="middle" fill="#334155">Data</text><rect x="730" y="176.5" width="38" height="413.5" rx="4" fill="#2563eb" fill-opacity="0.82"/><text x="749" y="168.45999999999998" font-family="Arial, Helvetica, sans-serif" font-size="11.5" font-weight="700" text-anchor="middle" fill="#2563eb">0.899</text><rect x="777" y="131.8" width="38" height="458.2" rx="4" fill="#f59e0b" fill-opacity="0.82"/><text x="796" y="123.83999999999997" font-family="Arial, Helvetica, sans-serif" font-size="11.5" font-weight="700" text-anchor="middle" fill="#f59e0b">0.996</text><rect x="824" y="155.3" width="38" height="434.7" rx="4" fill="#16a34a" fill-opacity="0.82"/><text x="843" y="147.3" font-family="Arial, Helvetica, sans-serif" font-size="11.5" font-weight="700" text-anchor="middle" fill="#16a34a">0.945</text><text x="798" y="621" font-family="Arial, Helvetica, sans-serif" font-size="13" font-weight="700" text-anchor="middle" fill="#334155">F</text><rect x="935" y="160.8" width="38" height="429.2" rx="4" fill="#2563eb" fill-opacity="0.82"/><text x="954" y="152.82" font-family="Arial, Helvetica, sans-serif" font-size="11.5" font-weight="700" text-anchor="middle" fill="#2563eb">0.933</text><rect x="982" y="359.1" width="38" height="230.9" rx="4" fill="#dc2626" fill-opacity="0.82"/><text x="1001" y="351.08000000000004" font-family="Arial, Helvetica, sans-serif" font-size="11.5" font-weight="700" text-anchor="middle" fill="#dc2626">0.502</text><rect x="1029" y="289.6" width="38" height="300.4" rx="4" fill="#16a34a" fill-opacity="0.82"/><text x="1048" y="281.62" font-family="Arial, Helvetica, sans-serif" font-size="11.5" font-weight="700" text-anchor="middle" fill="#16a34a">0.653</text><text x="1003" y="621" font-family="Arial, Helvetica, sans-serif" font-size="13" font-weight="700" text-anchor="middle" fill="#334155">UserRelated</text><rect x="830" y="112" width="305" height="78" rx="12" fill="#fef2f2" stroke="#fca5a5"/><text x="850" y="140" font-family="Arial, Helvetica, sans-serif" font-size="14" font-weight="700" text-anchor="start" fill="#991b1b">Key failure mode</text><text x="850" y="165" font-family="Arial, Helvetica, sans-serif" font-size="14" font-weight="700" text-anchor="start" fill="#dc2626">UserRelated recall = 0.502</text><text x="850" y="185" font-family="Arial, Helvetica, sans-serif" font-size="11.5" font-weight="400" text-anchor="start" fill="#7f1d1d">139 false negatives; many positives are missed.</text><rect x="100" y="630" width="18" height="18" rx="3" fill="#2563eb"/><text x="128" y="644" font-family="Arial, Helvetica, sans-serif" font-size="12.5" font-weight="600" text-anchor="start" fill="#172033">Precision</text><rect x="225" y="630" width="18" height="18" rx="3" fill="#f59e0b"/><text x="253" y="644" font-family="Arial, Helvetica, sans-serif" font-size="12.5" font-weight="600" text-anchor="start" fill="#172033">Recall</text><rect x="335" y="630" width="18" height="18" rx="3" fill="#16a34a"/><text x="363" y="644" font-family="Arial, Helvetica, sans-serif" font-size="12.5" font-weight="600" text-anchor="start" fill="#172033">F1</text><rect x="425" y="630" width="18" height="18" rx="3" fill="#dc2626"/><text x="453" y="644" font-family="Arial, Helvetica, sans-serif" font-size="12.5" font-weight="600" text-anchor="start" fill="#172033">Highlighted recall weakness</text><text x="55" y="700" font-family="Arial, Helvetica, sans-serif" font-size="12.5" font-weight="400" text-anchor="start" fill="#64748b">Source: pinned eTour gold labels and automatic predictions • n = 571 requirement elements</text></svg>